<svg id="Layer_1" data-name="Layer 1" xmlns="http://www.w3.org/2000/svg" viewBox="0 0 53.17 43"><path d="M28.86,37.86c-4.27-.22-8.53-.42-12.79-.65-2.21-.12-2.22-.15-2.9-2.22a1.88,1.88,0,0,0-1.73-1.25c-.95-.11-1.46-.47-1.46-1.48,0-1.17-.87-1.4-1.8-1.46-1.62-.11-1.79-.25-2-1.87a15.7,15.7,0,0,1-.3-3.18,3.86,3.86,0,0,0-.23-2.23,14.8,14.8,0,0,1-.6-4.2,1.17,1.17,0,0,1,.36-.86c.11-.12.29-.21.06-.45-1.39-1.48-.91-3.4-1.15-5.15-.08-.59.47-.95,1.08-1.08a2.21,2.21,0,0,0,2-2.25c0-1,.93-1.4,1.86-1.51q8-1,16-1.92c3.48-.42,7-.81,10.45-1.24C37.05,4.7,38,5,38.35,6.35a1.75,1.75,0,0,0,2,1.16c1.23,0,1.71.57,1.79,1.72.07,1,.25,2,.33,2.95.05.58.27.82.89.8a1.87,1.87,0,0,1,2.18,1.83,1.75,1.75,0,0,0,1.73,1.53c1.24.16,1.68.86,1.55,2.06a12.69,12.69,0,0,1-.28,3.18,4.7,4.7,0,0,0-.13,2.67,9.59,9.59,0,0,1-.17,3.66,5.26,5.26,0,0,0-.19,2.62,14.67,14.67,0,0,1-.14,3.9,1.18,1.18,0,0,1-1.3,1.13,2.07,2.07,0,0,0-2.34,1.71,1.78,1.78,0,0,1-2,1.3l-13.38-.69Z"/><path d="M11.89,31.19a1.21,1.21,0,0,1-1.41-.93,2.42,2.42,0,0,0-2.64-1.78c-.82,0-1.16-.34-1.17-1.12a5.3,5.3,0,0,0-.14-1.06c-.14-.64,0-1.08.68-1.3a1.36,1.36,0,0,0,1-1.54,1.38,1.38,0,0,0-1.33-1.3C5.45,22,6.05,20.79,5.79,20a.94.94,0,0,1,.68-1.38,1.32,1.32,0,0,0,1-1.57A1.39,1.39,0,0,0,6.1,15.83c-1.45-.22-.84-1.47-1.09-2.28s.17-1.1.87-1.26A2.43,2.43,0,0,0,8,9.94c.06-.82.52-1.16,1.31-1.26Q21.14,7.29,33,5.84L36,5.45c.74-.1,1.35,0,1.6.86a2.52,2.52,0,0,0,2.71,1.86c.76,0,1.06.3,1.12,1,.08,1.07.61,2.19-1,2.69-.56.18-.66.86-.54,1.45a1.17,1.17,0,0,0,1.11,1.07c1.2,0,1.18.88,1.25,1.65s.45,1.66-.81,2a1.25,1.25,0,0,0-.82,1.44,1.31,1.31,0,0,0,1.2,1.29c1.72.14,1,1.5,1.25,2.36s-.5,1.06-1.16,1.28a2.28,2.28,0,0,0-1.8,2.22A1.27,1.27,0,0,1,38.89,28l-26.84,3.2Z" style="fill:#fefefe"/><path d="M41.85,13.82c1.79-.64,2.69-.21,3.15,1.46A2.42,2.42,0,0,0,47.1,17c.68.13,1.2.33,1,1.11s.57,2.12-1,2.44a1.38,1.38,0,0,0-1.24,1.38,1.35,1.35,0,0,0,1.12,1.48c.82.18.92.75.75,1.35s.45,1.87-.91,2.12a1.45,1.45,0,0,0-1.31,1.35,1.4,1.4,0,0,0,1.19,1.55.85.85,0,0,1,.7,1,11.24,11.24,0,0,0-.06,1.42c0,.71-.34,1-1,1a2.49,2.49,0,0,0-2.59,2c-.18.82-.79,1-1.55,1L15.47,34.86a1.61,1.61,0,0,1-1.2-.45,1.09,1.09,0,0,1-.28-1c.09-.31.48-.15.73-.2A20.52,20.52,0,0,1,20,33.08q10.23.54,20.45,1.1c.87,0,1.51,0,1.75-1a2.36,2.36,0,0,1,1.13-1.49c1.05-.54,1.1-1.43,1.15-2.39.16-3.13.32-6.26.51-9.39a1.18,1.18,0,0,0-.49-1.12,4.16,4.16,0,0,1-1.58-3.2A1.79,1.79,0,0,0,41.85,13.82Z" style="fill:#fefefe"/><path d="M21.81,32.3l15.43-1.79c.51-.06,1-.11,1.54-.18,1.52-.18,1.95-.58,2.19-2.13a1.87,1.87,0,0,1,1.59-1.56A5.53,5.53,0,0,0,44,26c-.07,1.41-.16,2.75-.2,4.09a.91.91,0,0,1-.49.74,3.78,3.78,0,0,0-1.48,1.67c-.35.95-.92,1.1-1.88,1-5.65-.33-11.31-.58-17-.85C22.68,32.39,22,33.05,21.81,32.3Z" style="fill:#fefefe"/><path d="M43.43,18.68c1,.77,1.22,3.17.49,5.31-.11-.83-.21-1.59-.32-2.35,0-.19,0-.49-.09-.57C42.47,20.33,43.1,19.54,43.43,18.68Z" style="fill:#eaeaea"/><path d="M21.81,32.3c.29.45.84.15,1.2.42a6,6,0,0,1-2.41-.1A1.1,1.1,0,0,1,21.81,32.3Z" style="fill:#464646"/><path d="M8.34,15.09c0-.2-.12-.46,0-.58a8.79,8.79,0,0,0,2-3.82c0-.14.56-.22.87-.25Q23.07,9,34.94,7.56c.52-.06.8,0,1,.55A3.51,3.51,0,0,0,37.48,10a2.19,2.19,0,0,1,1.19,2c.35,3.23.75,6.46,1.17,9.68a1.15,1.15,0,0,1-.44,1.13,3.69,3.69,0,0,0-1.24,2.13c-.12.94-.54,1.2-1.41,1.3q-11.83,1.38-23.64,2.84a.69.69,0,0,1-.88-.52A3,3,0,0,0,11,26.86C9.7,26.23,9.51,25.17,9.38,24,9.08,21,8.69,18.05,8.34,15.09Z" style="fill:#020202"/><path d="M39.26,21.71c.1.37-.18.6-.43.86a3.22,3.22,0,0,0-1,1.6c-.18,1.31-1,1.49-2.13,1.62q-11,1.29-22,2.64c-.57.07-1,0-1.22-.6a3.08,3.08,0,0,0-1.29-1.53A2.53,2.53,0,0,1,10,23.94c-.3-2.87-.68-5.74-1.06-8.61a1.26,1.26,0,0,1,.39-1.27,3.2,3.2,0,0,0,1.1-1.8c.16-1,.76-1.26,1.68-1.37q11-1.29,22-2.65c.86-.1,1.46,0,1.75.88a.7.7,0,0,0,.29.38c2.2,1.16,2,3.33,2.3,5.32C38.71,17.1,39,19.38,39.26,21.71Z" style="fill:#fefefe"/><path d="M23.93,17c-.52,2.61-1,4.91-1.42,7.24-.15.88-.56,1.12-1.37,1.27s-1-.43-1.24-1c-1.39-3.18-2.75-6.37-4.15-9.54-.24-.55-.37-1.24-1.15-1.39a.48.48,0,0,1-.32-.57c0-.34.35-.43.62-.46l4.5-.54c.3,0,.58,0,.67.35a.51.51,0,0,1-.35.66c-.68.27-.56.71-.34,1.24.76,1.85,1.5,3.72,2.4,5.59.16-2,1.58-3.88.72-6a1.77,1.77,0,0,0-1-1.08.48.48,0,0,1-.32-.57.55.55,0,0,1,.52-.41l4.15-.47c.35,0,.78-.12.91.33s-.21.54-.51.69-.46.35-.27.75c.92,2,1.8,4.09,2.92,6.12l1.05-6.53c.07-.4,0-.7-.48-.81-.28-.07-.52-.22-.47-.57s.38-.44.72-.47c.71-.06,1.42-.18,2.13-.22s.75.56.43.75c-1.52,1-1.08,2.53-1.34,3.84-.54,2.71-.88,5.46-1.31,8.19-.1.63-.24,1.18-1.11,1.26s-1.18-.27-1.49-1C26.08,21.54,25.07,19.45,23.93,17Z"/></svg>